<?xml version="1.0" encoding="UTF-8" standalone="no"?>
<!DOCTYPE svg PUBLIC "-//W3C//DTD SVG 1.1//EN" "http://www.w3.org/Graphics/SVG/1.1/DTD/svg11.dtd">
<svg width="100%" height="100%" viewBox="0 0 16 16" version="1.1" xmlns="http://www.w3.org/2000/svg" xmlns:xlink="http://www.w3.org/1999/xlink" xml:space="preserve" xmlns:serif="http://www.serif.com/" style="fill-rule:evenodd;clip-rule:evenodd;stroke-linejoin:round;stroke-miterlimit:2;">
    <rect x="5" y="13" width="1" height="2" style="fill:white;"/>
    <rect x="10" y="13" width="1" height="2" style="fill:white;"/>
    <g transform="matrix(1.11111,0,0,1,-0.333333,0)">
        <path d="M12,15.25L12,15.75C12,15.888 11.899,16 11.775,16L3.225,16C3.101,16 3,15.888 3,15.75L3,15.25C3,15.112 3.101,15 3.225,15L11.775,15C11.899,15 12,15.112 12,15.25Z" style="fill:white;"/>
    </g>
    <path d="M12.5,0C14.432,0 16,1.568 16,3.5C16,5.432 14.432,7 12.5,7C10.568,7 9,5.432 9,3.5C9,1.568 10.568,0 12.5,0ZM10.304,4.696C10.66,4.89 11.067,5 11.5,5C12.88,5 14,3.88 14,2.5C14,2.067 13.89,1.66 13.696,1.304C13.34,1.11 12.933,1 12.5,1C11.12,1 10,2.12 10,3.5C10,3.933 10.11,4.34 10.304,4.696Z" style="fill:white;"/>
    <path d="M13,8.5L13,9.5C13,9.776 12.776,10 12.5,10C12.224,10 12,9.776 12,9.5L12,8.5C12,8.224 12.224,8 12.5,8C12.776,8 13,8.224 13,8.5Z" style="fill:white;"/>
    <path d="M8,3.5C8,3.776 7.776,4 7.5,4L6.5,4C6.224,4 6,3.776 6,3.5C6,3.224 6.224,3 6.5,3L7.5,3C7.776,3 8,3.224 8,3.5Z" style="fill:white;"/>
    <g transform="matrix(0.707107,-0.707107,0.707107,0.707107,0.721923,10.3283)">
        <path d="M8,3.5C8,3.776 7.776,4 7.5,4L6.5,4C6.224,4 6,3.776 6,3.5C6,3.224 6.224,3 6.5,3L7.5,3C7.776,3 8,3.224 8,3.5Z" style="fill:white;"/>
    </g>
    <path d="M16,6.327L16,11.96C16,12.534 15.534,13 14.96,13L1.04,13C0.466,13 0,12.534 0,11.96L0,1.04C0,0.466 0.466,0 1.04,0L9.673,0C9.32,0.285 9.012,0.622 8.759,1L1.88,1C1.394,1 1,1.394 1,1.88L1,11.12C1,11.606 1.394,12 1.88,12L14.12,12C14.606,12 15,11.606 15,11.12L15,7.241C15.378,6.988 15.715,6.68 16,6.327Z" style="fill:white;"/>
</svg>
